<mxfile host="app.diagrams.net" modified="2022-06-21T10:54:15.206Z" agent="5.0 (Macintosh; Intel Mac OS X 10_15_7) AppleWebKit/605.1.15 (KHTML, like Gecko) Version/15.5 Safari/605.1.15" etag="_dQPQ3lQUrMqhFt9KP3M" version="20.0.1" type="github">
  <diagram id="4vVc49PZSfxV89W3KW3v" name="Page-1">
    <mxGraphModel dx="1038" dy="604" grid="1" gridSize="10" guides="1" tooltips="1" connect="1" arrows="1" fold="1" page="1" pageScale="1" pageWidth="827" pageHeight="1169" math="0" shadow="0">
      <root>
        <mxCell id="0" />
        <mxCell id="1" parent="0" />
        <mxCell id="XcvrbHVAHUChPkUnBgOV-35" value="" style="rounded=0;whiteSpace=wrap;html=1;" vertex="1" parent="1">
          <mxGeometry x="510" y="166" width="160" height="110" as="geometry" />
        </mxCell>
        <mxCell id="XcvrbHVAHUChPkUnBgOV-1" value="" style="rounded=0;whiteSpace=wrap;html=1;" vertex="1" parent="1">
          <mxGeometry x="40" y="40" width="280" height="200" as="geometry" />
        </mxCell>
        <mxCell id="XcvrbHVAHUChPkUnBgOV-2" value="Pod 1" style="text;html=1;align=center;verticalAlign=middle;resizable=0;points=[];autosize=1;strokeColor=none;fillColor=none;" vertex="1" parent="1">
          <mxGeometry x="155" y="50" width="50" height="20" as="geometry" />
        </mxCell>
        <mxCell id="XcvrbHVAHUChPkUnBgOV-3" value="Container X/Y/Z" style="rounded=0;whiteSpace=wrap;html=1;" vertex="1" parent="1">
          <mxGeometry x="175" y="80" width="120" height="60" as="geometry" />
        </mxCell>
        <mxCell id="XcvrbHVAHUChPkUnBgOV-4" value="Container X/Y/Z" style="rounded=0;whiteSpace=wrap;html=1;" vertex="1" parent="1">
          <mxGeometry x="160" y="90" width="120" height="60" as="geometry" />
        </mxCell>
        <mxCell id="XcvrbHVAHUChPkUnBgOV-5" value="Container X/Y/Z" style="rounded=0;whiteSpace=wrap;html=1;" vertex="1" parent="1">
          <mxGeometry x="145" y="100" width="120" height="60" as="geometry" />
        </mxCell>
        <mxCell id="XcvrbHVAHUChPkUnBgOV-22" style="edgeStyle=orthogonalEdgeStyle;rounded=0;orthogonalLoop=1;jettySize=auto;html=1;exitX=1;exitY=0.5;exitDx=0;exitDy=0;entryX=0;entryY=0.5;entryDx=0;entryDy=0;entryPerimeter=0;" edge="1" parent="1" source="XcvrbHVAHUChPkUnBgOV-6" target="XcvrbHVAHUChPkUnBgOV-21">
          <mxGeometry relative="1" as="geometry">
            <Array as="points">
              <mxPoint x="340" y="200" />
              <mxPoint x="340" y="96" />
            </Array>
          </mxGeometry>
        </mxCell>
        <mxCell id="XcvrbHVAHUChPkUnBgOV-6" value="Log Worker" style="rounded=0;whiteSpace=wrap;html=1;" vertex="1" parent="1">
          <mxGeometry x="145" y="170" width="120" height="60" as="geometry" />
        </mxCell>
        <mxCell id="XcvrbHVAHUChPkUnBgOV-9" style="edgeStyle=orthogonalEdgeStyle;rounded=0;orthogonalLoop=1;jettySize=auto;html=1;exitX=0;exitY=0.5;exitDx=0;exitDy=0;entryX=0;entryY=0.5;entryDx=0;entryDy=0;" edge="1" parent="1" source="XcvrbHVAHUChPkUnBgOV-7" target="XcvrbHVAHUChPkUnBgOV-6">
          <mxGeometry relative="1" as="geometry" />
        </mxCell>
        <mxCell id="XcvrbHVAHUChPkUnBgOV-7" value="STDOUT" style="rounded=0;whiteSpace=wrap;html=1;" vertex="1" parent="1">
          <mxGeometry x="80" y="110" width="65" height="20" as="geometry" />
        </mxCell>
        <mxCell id="XcvrbHVAHUChPkUnBgOV-10" style="edgeStyle=orthogonalEdgeStyle;rounded=0;orthogonalLoop=1;jettySize=auto;html=1;exitX=0;exitY=0.5;exitDx=0;exitDy=0;entryX=0;entryY=0.5;entryDx=0;entryDy=0;" edge="1" parent="1" source="XcvrbHVAHUChPkUnBgOV-8" target="XcvrbHVAHUChPkUnBgOV-6">
          <mxGeometry relative="1" as="geometry" />
        </mxCell>
        <mxCell id="XcvrbHVAHUChPkUnBgOV-8" value="STDERR" style="rounded=0;whiteSpace=wrap;html=1;" vertex="1" parent="1">
          <mxGeometry x="80" y="130" width="65" height="20" as="geometry" />
        </mxCell>
        <mxCell id="XcvrbHVAHUChPkUnBgOV-11" value="" style="rounded=0;whiteSpace=wrap;html=1;" vertex="1" parent="1">
          <mxGeometry x="40" y="270" width="280" height="200" as="geometry" />
        </mxCell>
        <mxCell id="XcvrbHVAHUChPkUnBgOV-12" value="Pod 2" style="text;html=1;align=center;verticalAlign=middle;resizable=0;points=[];autosize=1;strokeColor=none;fillColor=none;" vertex="1" parent="1">
          <mxGeometry x="155" y="280" width="50" height="20" as="geometry" />
        </mxCell>
        <mxCell id="XcvrbHVAHUChPkUnBgOV-13" value="Container X/Y/Z" style="rounded=0;whiteSpace=wrap;html=1;" vertex="1" parent="1">
          <mxGeometry x="175" y="310" width="120" height="60" as="geometry" />
        </mxCell>
        <mxCell id="XcvrbHVAHUChPkUnBgOV-14" value="Container X/Y/Z" style="rounded=0;whiteSpace=wrap;html=1;" vertex="1" parent="1">
          <mxGeometry x="160" y="320" width="120" height="60" as="geometry" />
        </mxCell>
        <mxCell id="XcvrbHVAHUChPkUnBgOV-15" value="Container A/B/C" style="rounded=0;whiteSpace=wrap;html=1;" vertex="1" parent="1">
          <mxGeometry x="145" y="330" width="120" height="60" as="geometry" />
        </mxCell>
        <mxCell id="XcvrbHVAHUChPkUnBgOV-23" style="edgeStyle=orthogonalEdgeStyle;rounded=0;orthogonalLoop=1;jettySize=auto;html=1;exitX=1;exitY=0.5;exitDx=0;exitDy=0;entryX=0;entryY=0.5;entryDx=0;entryDy=0;entryPerimeter=0;" edge="1" parent="1" source="XcvrbHVAHUChPkUnBgOV-16" target="XcvrbHVAHUChPkUnBgOV-21">
          <mxGeometry relative="1" as="geometry">
            <Array as="points">
              <mxPoint x="340" y="430" />
              <mxPoint x="340" y="96" />
            </Array>
          </mxGeometry>
        </mxCell>
        <mxCell id="XcvrbHVAHUChPkUnBgOV-16" value="Log Worker" style="rounded=0;whiteSpace=wrap;html=1;" vertex="1" parent="1">
          <mxGeometry x="145" y="400" width="120" height="60" as="geometry" />
        </mxCell>
        <mxCell id="XcvrbHVAHUChPkUnBgOV-17" style="edgeStyle=orthogonalEdgeStyle;rounded=0;orthogonalLoop=1;jettySize=auto;html=1;exitX=0;exitY=0.5;exitDx=0;exitDy=0;entryX=0;entryY=0.5;entryDx=0;entryDy=0;" edge="1" parent="1" source="XcvrbHVAHUChPkUnBgOV-18" target="XcvrbHVAHUChPkUnBgOV-16">
          <mxGeometry relative="1" as="geometry" />
        </mxCell>
        <mxCell id="XcvrbHVAHUChPkUnBgOV-18" value="STDOUT" style="rounded=0;whiteSpace=wrap;html=1;" vertex="1" parent="1">
          <mxGeometry x="80" y="340" width="65" height="20" as="geometry" />
        </mxCell>
        <mxCell id="XcvrbHVAHUChPkUnBgOV-19" style="edgeStyle=orthogonalEdgeStyle;rounded=0;orthogonalLoop=1;jettySize=auto;html=1;exitX=0;exitY=0.5;exitDx=0;exitDy=0;entryX=0;entryY=0.5;entryDx=0;entryDy=0;" edge="1" parent="1" source="XcvrbHVAHUChPkUnBgOV-20" target="XcvrbHVAHUChPkUnBgOV-16">
          <mxGeometry relative="1" as="geometry" />
        </mxCell>
        <mxCell id="XcvrbHVAHUChPkUnBgOV-20" value="STDERR" style="rounded=0;whiteSpace=wrap;html=1;" vertex="1" parent="1">
          <mxGeometry x="80" y="360" width="65" height="20" as="geometry" />
        </mxCell>
        <mxCell id="XcvrbHVAHUChPkUnBgOV-21" value="NATS.io" style="shape=cylinder3;whiteSpace=wrap;html=1;boundedLbl=1;backgroundOutline=1;size=15;" vertex="1" parent="1">
          <mxGeometry x="384" y="56" width="60" height="80" as="geometry" />
        </mxCell>
        <mxCell id="XcvrbHVAHUChPkUnBgOV-24" value="Structured log&lt;br&gt;Timestamp&lt;br&gt;K8S Metadata&lt;br&gt;Log level&lt;br&gt;Container&lt;br&gt;Log" style="text;html=1;align=center;verticalAlign=middle;resizable=0;points=[];autosize=1;strokeColor=none;fillColor=none;" vertex="1" parent="1">
          <mxGeometry x="374" y="166" width="90" height="90" as="geometry" />
        </mxCell>
        <mxCell id="XcvrbHVAHUChPkUnBgOV-25" value="" style="rounded=0;whiteSpace=wrap;html=1;" vertex="1" parent="1">
          <mxGeometry x="510" y="41" width="320" height="110" as="geometry" />
        </mxCell>
        <mxCell id="XcvrbHVAHUChPkUnBgOV-27" value="gRPC interface" style="rounded=0;whiteSpace=wrap;html=1;" vertex="1" parent="1">
          <mxGeometry x="530" y="236" width="120" height="30" as="geometry" />
        </mxCell>
        <mxCell id="XcvrbHVAHUChPkUnBgOV-28" value="PV log heap file" style="rounded=0;whiteSpace=wrap;html=1;" vertex="1" parent="1">
          <mxGeometry x="757" y="176" width="60" height="90" as="geometry" />
        </mxCell>
        <mxCell id="XcvrbHVAHUChPkUnBgOV-29" value="PV log index" style="rounded=0;whiteSpace=wrap;html=1;" vertex="1" parent="1">
          <mxGeometry x="690" y="176" width="60" height="90" as="geometry" />
        </mxCell>
        <mxCell id="XcvrbHVAHUChPkUnBgOV-30" value="Write worker" style="rounded=0;whiteSpace=wrap;html=1;" vertex="1" parent="1">
          <mxGeometry x="530" y="66" width="120" height="60" as="geometry" />
        </mxCell>
        <mxCell id="XcvrbHVAHUChPkUnBgOV-32" style="edgeStyle=orthogonalEdgeStyle;rounded=0;orthogonalLoop=1;jettySize=auto;html=1;exitX=1;exitY=0.5;exitDx=0;exitDy=0;exitPerimeter=0;entryX=0;entryY=0.5;entryDx=0;entryDy=0;" edge="1" parent="1" source="XcvrbHVAHUChPkUnBgOV-21" target="XcvrbHVAHUChPkUnBgOV-30">
          <mxGeometry relative="1" as="geometry" />
        </mxCell>
        <mxCell id="XcvrbHVAHUChPkUnBgOV-33" value="Read worker" style="rounded=0;whiteSpace=wrap;html=1;" vertex="1" parent="1">
          <mxGeometry x="530" y="176" width="120" height="60" as="geometry" />
        </mxCell>
        <mxCell id="XcvrbHVAHUChPkUnBgOV-39" value="initContainer&lt;br&gt;(ensure heap / index files exist)" style="rounded=0;whiteSpace=wrap;html=1;" vertex="1" parent="1">
          <mxGeometry x="690" y="66" width="120" height="60" as="geometry" />
        </mxCell>
        <mxCell id="XcvrbHVAHUChPkUnBgOV-41" style="edgeStyle=orthogonalEdgeStyle;rounded=0;orthogonalLoop=1;jettySize=auto;html=1;exitX=0.5;exitY=0;exitDx=0;exitDy=0;entryX=0.5;entryY=1;entryDx=0;entryDy=0;" edge="1" parent="1" source="XcvrbHVAHUChPkUnBgOV-40" target="XcvrbHVAHUChPkUnBgOV-35">
          <mxGeometry relative="1" as="geometry" />
        </mxCell>
        <mxCell id="XcvrbHVAHUChPkUnBgOV-40" value="Client" style="rounded=0;whiteSpace=wrap;html=1;" vertex="1" parent="1">
          <mxGeometry x="530" y="306" width="120" height="60" as="geometry" />
        </mxCell>
        <mxCell id="XcvrbHVAHUChPkUnBgOV-47" value="jetstream mode" style="text;html=1;align=center;verticalAlign=middle;resizable=0;points=[];autosize=1;strokeColor=none;fillColor=none;" vertex="1" parent="1">
          <mxGeometry x="364" y="30" width="100" height="20" as="geometry" />
        </mxCell>
        <mxCell id="XcvrbHVAHUChPkUnBgOV-49" value="operator to add logging to existing pods - inject the sidecar container&amp;nbsp;" style="text;html=1;align=center;verticalAlign=middle;resizable=0;points=[];autosize=1;strokeColor=none;fillColor=none;" vertex="1" parent="1">
          <mxGeometry x="34" y="490" width="380" height="20" as="geometry" />
        </mxCell>
      </root>
    </mxGraphModel>
  </diagram>
</mxfile>
